#!OML:ASF E:\inclinewalkrobotboard\Project 1\Capture day 1\Session 1\subject1.ASF
:FULLY-SPECIFIED
:DEGREES
64
root 6.20561 16.6575 36.2256 -170.253 -1.5447 -180.423
lowerback -6.92779 0.558247 -6.53534
upperback 1.90557 1.22262 2.09309
thorax 5.72097 0.329796 6.03543
lowerneck -5.25078 1.06958 -3.95786
upperneck 35.7989 -5.59413 7.19937
head 13.1504 -3.83561 2.46119
rclavicle 5.1684e-015 1.07344e-014
rhumerus -49.1981 -41.9522 -56.6393
rradius 18.9489
rwrist 28.1919
rhand -16.5783 -37.332
rfingers 7.12502
rthumb 9.64222 -67.0914
lclavicle 5.1684e-015 1.07344e-014
lhumerus -22.5945 -1.15568 92.812
lradius 19.2377
lwrist -29.4902
lhand -30.9089 -19.834
lfingers 7.12502
lthumb -4.19519 10.1045
rfemur -13.9609 2.19847 18.8619
rtibia 9.25758
rfoot -9.49529 -5.21686
rtoes -18.8197
lfemur -7.52191 -8.1945 -22.0342
ltibia 9.95159
lfoot -15.8205 2.01512
ltoes -61.4242
65
root 6.18828 16.6551 36.2493 -170.223 -0.888136 -180.288
lowerback -7.05807 0.668207 -6.512
upperback 1.84645 1.37624 2.07566
thorax 5.70981 0.409394 6.02308
lowerneck -6.65092 1.43928 -2.83436
upperneck 36.7835 -4.94988 6.17989
head 13.8017 -3.48535 1.92474
rclavicle 2.37548e-014 4.45278e-014
rhumerus -49.4102 -42.5751 -56.1578
rradius 18.654
rwrist 30.5084
rhand -16.9328 -37.2584
rfingers 7.12502
rthumb 9.3002 -67.0332
lclavicle 2.37548e-014 4.45278e-014
lhumerus -23.0683 -1.36744 92.8398
lradius 20.351
lwrist -27.7372
lhand -30.9663 -20.3601
lfingers 7.12502
lthumb -4.25056 9.57722
rfemur -14.1149 2.26851 18.9862
rtibia 9.30766
rfoot -10.1301 -4.97955
rtoes -19.1646
lfemur -7.5072 -7.80487 -21.9497
ltibia 9.72419
lfoot -15.6434 2.19438
ltoes -60.9544
66
root 6.17323 16.6571 36.2679 -170.258 -0.103859 -180.112
lowerback -7.15428 0.803798 -6.48419
upperback 1.83133 1.56034 2.08142
thorax 5.72097 0.501262 6.03653
lowerneck -7.02198 1.6121 -2.61963
upperneck 37.0726 -4.70414 5.98731
head 13.9925 -3.37124 1.83729
rclavicle -6.80837e-015 -2.06736e-014
rhumerus -49.4421 -43.0249 -55.9569
rradius 18.5784
rwrist 32.2702
rhand -17.3543 -37.3441
rfingers 7.12502
rthumb 8.89346 -67.1366
lclavicle -6.80837e-015 -2.06736e-014
lhumerus -23.5922 -1.61815 92.8695
lradius 21.3339
lwrist -26.0074
lhand -31.5452 -20.12
lfingers 7.12502
lthumb -4.80963 9.80544
rfemur -14.3196 2.30347 19.2264
rtibia 9.71149
rfoot -10.9216 -4.90379
rtoes -20.898
lfemur -7.29325 -7.51328 -21.851
ltibia 9.33759
lfoot -15.5641 2.57193
ltoes -60.5095
67
root 6.15722 16.6638 36.2812 -170.403 0.664 -179.904
lowerback -7.21963 0.92759 -6.40192
upperback 1.9068 1.73721 2.1246
thorax 5.81292 0.59129 6.06026
lowerneck -6.91301 1.66176 -2.77618
upperneck 36.9815 -4.62656 6.07662
head 13.9246 -3.35498 1.91207
rclavicle 2.32081e-014 5.1684e-015
rhumerus -49.3096 -43.5164 -55.7949
rradius 18.5411
rwrist 33.5162
rhand -17.7686 -37.4092
rfingers 7.12502
rthumb 8.49366 -67.2184
lclavicle 2.32081e-014 5.1684e-015
lhumerus -24.0707 -1.73645 92.9078
lradius 22.1069
lwrist -24.6216
lhand -32.3572 -19.3629
lfingers 7.12502
lthumb -5.59366 10.5433
rfemur -14.446 2.14095 19.5689
rtibia 10.487
rfoot -11.8397 -5.12446
rtoes -22.4664
lfemur -7.01547 -7.48259 -21.7923
ltibia 9.18691
lfoot -15.6986 3.23596
ltoes -60.3785
68
root 6.14506 16.6741 36.3012 -170.506 1.35647 -179.654
lowerback -7.28094 1.09 -6.22409
upperback 1.97665 1.94374 2.12782
thorax 5.89531 0.694959 5.98953
lowerneck -6.81555 1.68312 -2.80413
upperneck 36.8596 -4.61185 6.18212
head 13.8487 -3.34211 1.96179
rclavicle -1.60519e-014 3.57812e-015
rhumerus -49.228 -44.0961 -55.7192
rradius 18.6189
rwrist 33.9398
rhand -18.5861 -37.4988
rfingers 7.12502
rthumb 7.70463 -67.3385
lclavicle -1.60519e-014 3.57812e-015
lhumerus -24.4766 -1.99322 92.8235
lradius 22.6096
lwrist -23.4508
lhand -32.9908 -19.4292
lfingers 7.12502
lthumb -6.20535 10.4599
rfemur -14.7514 2.09487 19.9896
rtibia 11.8005
rfoot -12.8905 -5.98167
rtoes -22.0331
lfemur -6.947 -7.45507 -21.6386
ltibia 9.28307
lfoot -15.8625 3.91485
ltoes -60.5537
69
root 6.14074 16.6856 36.3284 -170.555 2.01232 -179.366
lowerback -7.2587 1.27221 -6.00672
upperback 1.96726 2.16726 2.09166
thorax 5.84693 0.816518 5.85054
lowerneck -6.61403 1.71434 -2.75854
upperneck 36.6881 -4.6671 6.44858
head 13.7366 -3.33739 2.05342
rclavicle -2.48481e-015 -4.37326e-015
rhumerus -48.85 -43.9982 -56.4813
rradius 18.9983
rwrist 32.6952
rhand -19.6966 -38.1306
rfingers 7.12502
rthumb 6.63267 -68.0067
lclavicle -2.48481e-015 -4.37326e-015
lhumerus -24.801 -2.44119 92.6421
lradius 22.9336
lwrist -21.9859
lhand -32.3738 -19.9149
lfingers 7.12502
lthumb -5.60968 9.99083
rfemur -15.2472 2.43886 20.463
rtibia 13.6359
rfoot -14.0576 -7.29232
rtoes -19.5991
lfemur -6.87361 -7.37283 -21.3283
ltibia 9.14217
lfoot -15.8395 4.53905
ltoes -60.4664
70
root 6.13923 16.6945 36.3493 -170.622 2.51297 -179.061
lowerback -7.24108 1.37616 -5.75871
upperback 1.97131 2.28257 2.09256
thorax 5.83234 0.883508 5.72225
lowerneck -7.15711 1.89164 -2.10996
upperneck 37.2229 -4.49527 6.02346
head 14.0754 -3.22924 1.78204
rclavicle 2.08724e-014 9.54166e-015
rhumerus -48.0276 -43.297 -57.865
rradius 19.512
rwrist 30.4633
rhand -19.9493 -38.8057
rfingers 7.12502
rthumb 6.3888 -68.6894
lclavicle 2.08724e-014 9.54166e-015
lhumerus -24.9654 -2.93749 92.5135
lradius 23.4373
lwrist -19.6112
lhand -29.1834 -18.3377
lfingers 7.12502
lthumb -2.52886 11.627
rfemur -15.6285 2.7356 20.9784
rtibia 15.6762
rfoot -15.0754 -8.14629
rtoes -17.1856
lfemur -6.6267 -7.36408 -20.9727
ltibia 8.76291
lfoot -15.8062 4.92753
ltoes -59.846
71
root 6.13787 16.6977 36.3579 -170.739 2.8256 -178.992
lowerback -7.32555 1.33078 -5.76034
upperback 2.05079 2.22746 2.12469
thorax 5.97165 0.848381 5.75763
lowerneck -7.20323 1.98452 -2.14456
upperneck 37.1993 -4.37379 6.10508
head 14.0692 -3.17276 1.83713
rclavicle -1.12313e-014 9.74045e-015
rhumerus -47.0041 -42.4235 -59.2345
rradius 20.0338
rwrist 27.9982
rhand -19.369 -39.0242
rfingers 7.12502
rthumb 6.94899 -68.8902
lclavicle -1.12313e-014 9.74045e-015
lhumerus -25.1139 -3.12881 92.3512
lradius 23.0761
lwrist -19.5981
lhand -28.93 -18.682
lfingers 7.12502
lthumb -2.28407 11.2855
rfemur -15.7299 2.92918 21.1777
rtibia 17.5266
rfoot -15.9262 -8.60428
rtoes -17.4088
lfemur -6.31788 -7.40031 -20.9377
ltibia 8.42899
lfoot -15.8904 5.01444
ltoes -59.4146
72
root 6.13748 16.6969 36.3579 -170.899 2.95618 -179.252
lowerback -7.43309 1.17627 -6.10021
upperback 2.10918 2.0605 2.11983
thorax 6.10972 0.745334 5.93372
lowerneck -6.93086 2.01054 -2.43365
upperneck 37.0585 -4.36416 6.29424
head 13.9492 -3.20455 1.96624
rclavicle -1.59525e-014 -1.51076e-014
rhumerus -46.1148 -41.3976 -60.4444
rradius 20.5699
rwrist 25.3897
rhand -19.3427 -39.506
rfingers 7.12502
rthumb 6.97439 -69.3711
lclavicle -1.59525e-014 -1.51076e-014
lhumerus -25.2061 -2.98292 92.1201
lradius 22.3836
lwrist -20.2769
lhand -29.0813 -19.1288
lfingers 7.12502
lthumb -2.43022 10.8371
rfemur -15.516 3.22095 20.8933
rtibia 18.8523
rfoot -16.6534 -8.83994
rtoes -19.337
lfemur -6.0173 -7.44964 -21.3101
ltibia 8.19475
lfoot -15.8839 5.09784
ltoes -59.5533
73
root 6.13933 16.6943 36.3514 -171.023 2.86794 -179.476
lowerback -7.59412 0.984447 -6.36078
upperback 2.09853 1.83854 2.10592
thorax 6.21759 0.620836 6.04794
lowerneck -6.52943 2.02788 -2.45153
upperneck 36.9314 -4.37714 6.28628
head 13.8012 -3.24113 1.96273
rclavicle -2.64881e-014 -1.66979e-014
rhumerus -45.5025 -40.5239 -61.3772
rradius 21.0124
rwrist 23.4901
rhand -19.5275 -40.2797
rfingers 7.12502
rthumb 6.79599 -70.1506
lclavicle -2.64881e-014 -1.66979e-014
lhumerus -25.1856 -2.64889 91.768
lradius 21.0964
lwrist -21.9787
lhand -29.696 -19.7215
lfingers 7.12502
lthumb -3.02389 10.2369
rfemur -14.9827 3.6765 20.5979
rtibia 19.4187
rfoot -16.8911 -8.32499
rtoes -21.4637
lfemur -5.81988 -7.52385 -21.622
ltibia 8.13672
lfoot -15.829 5.12895
ltoes -59.829
74
root 6.14635 16.6898 36.3417 -171.04 2.59449 -179.418
lowerback -7.85257 0.823466 -6.29587
upperback 2.05476 1.6299 2.12919
thorax 6.35124 0.515211 6.01913
lowerneck -6.36161 1.8929 -2.14083
upperneck 36.9466 -4.65608 6.0991
head 13.7821 -3.36607 1.79054
rclavicle -1.14301e-015 -2.5842e-015
rhumerus -45.2849 -40.2652 -61.6934
rradius 21.2938
rwrist 22.7586
rhand -19.2369 -40.4664
rfingers 7.12502
rthumb 7.07645 -70.3281
lclavicle -1.14301e-015 -2.5842e-015
lhumerus -25.0334 -2.41025 91.3715
lradius 19.5291
lwrist -24.223
lhand -30.0658 -21.1094
lfingers 7.12502
lthumb -3.38097 8.84359
rfemur -14.1874 4.33551 20.6161
rtibia 19.1023
rfoot -16.5339 -6.7936
rtoes -22.3839
lfemur -5.87223 -7.53378 -21.5213
ltibia 8.33417
lfoot -15.8668 4.84337
ltoes -59.9973
